<svg width="32" height="32" viewBox="0 0 32 32" xmlns="http://www.w3.org/2000/svg">
  <defs>
    <linearGradient id="brainGrad" x1="0%" y1="0%" x2="100%" y2="100%">
      <stop offset="0%" style="stop-color:#667eea;stop-opacity:1" />
      <stop offset="100%" style="stop-color:#f093fb;stop-opacity:1" />
    </linearGradient>
  </defs>

  <!-- Brain/Cabinet shape -->
  <path d="M 8 8 Q 6 5, 10 4 Q 14 3, 16 4 Q 18 3, 22 4 Q 26 5, 24 8
           L 24 24 Q 24 26, 22 27 L 10 27 Q 8 26, 8 24 Z"
        fill="url(#brainGrad)" opacity="0.95"/>

  <!-- Drawer handles -->
  <rect x="10" y="10" width="12" height="2" rx="1" fill="#10b981" opacity="0.9"/>
  <rect x="10" y="15" width="12" height="2" rx="1" fill="#10b981" opacity="0.9"/>
  <rect x="10" y="20" width="12" height="2" rx="1" fill="#10b981" opacity="0.9"/>

  <!-- Sparkles -->
  <path d="M 5 12 L 6 13 L 5 14 L 4 13 Z" fill="#fbbf24"/>
  <path d="M 27 18 L 28 19 L 27 20 L 26 19 Z" fill="#f093fb"/>
</svg>
